<svg xmlns="http://www.w3.org/2000/svg" viewBox="0 0 160 120" shape-rendering="crispEdges"><rect width="160" height="120" fill="#080808"/><rect x="117" y="12" width="17" height="17" fill="#2d282a"/><rect x="120" y="10" width="11" height="21" fill="#2d282a"/><rect x="0" y="49" width="10" height="19" fill="#151416"/><rect x="2" y="61" width="2" height="3" fill="#282b2b"/><rect x="6" y="61" width="2" height="3" fill="#282b2b"/><rect x="12" y="30" width="10" height="38" fill="#151416"/><rect x="14" y="35" width="2" height="3" fill="#2d3838"/><rect x="18" y="35" width="2" height="3" fill="#2d3838"/><rect x="18" y="49" width="2" height="3" fill="#282b2b"/><rect x="18" y="56" width="2" height="3" fill="#2c3939"/><rect x="18" y="63" width="2" height="3" fill="#2c3939"/><rect x="24" y="35" width="10" height="33" fill="#151416"/><rect x="26" y="40" width="2" height="3" fill="#2d3838"/><rect x="26" y="47" width="2" height="3" fill="#2d3838"/><rect x="26" y="54" width="2" height="3" fill="#2d3838"/><rect x="30" y="61" width="2" height="3" fill="#2d3838"/><rect x="36" y="39" width="10" height="29" fill="#151416"/><rect x="38" y="51" width="2" height="3" fill="#282b2b"/><rect x="38" y="58" width="2" height="3" fill="#282b2b"/><rect x="38" y="65" width="2" height="3" fill="#2c3939"/><rect x="48" y="41" width="10" height="27" fill="#151416"/><rect x="54" y="46" width="2" height="3" fill="#2c3939"/><rect x="50" y="60" width="2" height="3" fill="#2d3838"/><rect x="54" y="60" width="2" height="3" fill="#282b2b"/><rect x="60" y="40" width="10" height="28" fill="#151416"/><rect x="66" y="52" width="2" height="3" fill="#2d3838"/><rect x="66" y="59" width="2" height="3" fill="#2d3838"/><rect x="66" y="66" width="2" height="3" fill="#282b2b"/><rect x="72" y="41" width="10" height="27" fill="#151416"/><rect x="74" y="46" width="2" height="3" fill="#2d3838"/><rect x="78" y="46" width="2" height="3" fill="#2c3939"/><rect x="78" y="53" width="2" height="3" fill="#2d3838"/><rect x="78" y="60" width="2" height="3" fill="#282b2b"/><rect x="84" y="36" width="10" height="32" fill="#151416"/><rect x="86" y="48" width="2" height="3" fill="#2c3939"/><rect x="90" y="55" width="2" height="3" fill="#2c3939"/><rect x="90" y="62" width="2" height="3" fill="#2c3939"/><rect x="96" y="39" width="10" height="29" fill="#151416"/><rect x="102" y="44" width="2" height="3" fill="#2d3838"/><rect x="102" y="51" width="2" height="3" fill="#2c3939"/><rect x="98" y="58" width="2" height="3" fill="#2c3939"/><rect x="98" y="65" width="2" height="3" fill="#2d3838"/><rect x="108" y="40" width="10" height="28" fill="#151416"/><rect x="114" y="45" width="2" height="3" fill="#282b2b"/><rect x="114" y="52" width="2" height="3" fill="#2c3939"/><rect x="110" y="66" width="2" height="3" fill="#282b2b"/><rect x="114" y="66" width="2" height="3" fill="#2d3838"/><rect x="120" y="37" width="10" height="31" fill="#151416"/><rect x="122" y="42" width="2" height="3" fill="#2c3939"/><rect x="126" y="42" width="2" height="3" fill="#2c3939"/><rect x="122" y="49" width="2" height="3" fill="#2d3838"/><rect x="122" y="56" width="2" height="3" fill="#2d3838"/><rect x="126" y="56" width="2" height="3" fill="#2c3939"/><rect x="122" y="63" width="2" height="3" fill="#2d3838"/><rect x="126" y="63" width="2" height="3" fill="#282b2b"/><rect x="132" y="34" width="10" height="34" fill="#151416"/><rect x="134" y="39" width="2" height="3" fill="#2c3939"/><rect x="134" y="53" width="2" height="3" fill="#2c3939"/><rect x="134" y="60" width="2" height="3" fill="#282b2b"/><rect x="138" y="60" width="2" height="3" fill="#282b2b"/><rect x="144" y="44" width="10" height="24" fill="#151416"/><rect x="146" y="49" width="2" height="3" fill="#282b2b"/><rect x="150" y="49" width="2" height="3" fill="#2c3939"/><rect x="146" y="63" width="2" height="3" fill="#2d3838"/><rect x="156" y="47" width="10" height="21" fill="#151416"/><rect x="158" y="52" width="2" height="3" fill="#282b2b"/><rect x="162" y="52" width="2" height="3" fill="#2c3939"/><rect x="158" y="66" width="2" height="3" fill="#282b2b"/><rect x="162" y="66" width="2" height="3" fill="#2c3939"/><rect x="0" y="68" width="160" height="52" fill="#0c1212"/><rect x="0" y="77" width="160" height="1" fill="#202929"/><rect x="0" y="86" width="160" height="1" fill="#202929"/><rect x="0" y="95" width="160" height="1" fill="#202929"/><rect x="0" y="104" width="160" height="1" fill="#202929"/><rect x="0" y="113" width="160" height="1" fill="#202929"/><path d="M80 68L-40 120" stroke="#202929" stroke-width="1"/><path d="M80 68L-20 120" stroke="#202929" stroke-width="1"/><path d="M80 68L0 120" stroke="#202929" stroke-width="1"/><path d="M80 68L20 120" stroke="#202929" stroke-width="1"/><path d="M80 68L40 120" stroke="#202929" stroke-width="1"/><path d="M80 68L60 120" stroke="#202929" stroke-width="1"/><path d="M80 68L80 120" stroke="#202929" stroke-width="1"/><path d="M80 68L100 120" stroke="#202929" stroke-width="1"/><path d="M80 68L120 120" stroke="#202929" stroke-width="1"/><path d="M80 68L140 120" stroke="#202929" stroke-width="1"/><path d="M80 68L160 120" stroke="#202929" stroke-width="1"/><path d="M80 68L180 120" stroke="#202929" stroke-width="1"/><path d="M80 68L200 120" stroke="#202929" stroke-width="1"/><rect x="48" y="38" width="64" height="3" fill="#3f3032"/><rect x="42" y="41" width="76" height="3" fill="#4f4041"/><rect x="37" y="44" width="86" height="3" fill="#1d1617"/><rect x="44" y="47" width="72" height="3" fill="#735559"/><rect x="51" y="50" width="5" height="39" fill="#322829"/><rect x="104" y="50" width="5" height="39" fill="#322829"/><rect x="52" y="51" width="2" height="36" fill="#694d51"/><rect x="105" y="51" width="2" height="36" fill="#694d51"/><rect x="47" y="56" width="66" height="4" fill="#3a2e30"/><rect x="46" y="55" width="68" height="1" fill="#538a8a"/><rect x="76" y="48" width="8" height="6" fill="#101616"/><rect x="78" y="49" width="4" height="3" fill="#599f9f"/><rect x="58" y="88" width="44" height="3" fill="#1a2121"/><rect x="54" y="91" width="52" height="3" fill="#2f2829"/><rect x="48" y="94" width="64" height="3" fill="#1f2626"/><rect x="29" y="59" width="3" height="26" fill="#2b3434"/><rect x="26" y="58" width="9" height="2" fill="#293434"/><rect x="27" y="63" width="7" height="9" fill="#476464"/><rect x="29" y="64" width="2" height="7" fill="#66a9a9"/><rect x="25" y="84" width="11" height="2" fill="#2b3434"/><rect x="125" y="59" width="3" height="26" fill="#2b3434"/><rect x="122" y="58" width="9" height="2" fill="#293434"/><rect x="123" y="63" width="7" height="9" fill="#476464"/><rect x="125" y="64" width="2" height="7" fill="#66a9a9"/><rect x="121" y="84" width="11" height="2" fill="#2b3434"/><rect x="10" y="39" width="9" height="22" fill="#1d2626"/><rect x="12" y="41" width="5" height="2" fill="#5a8585"/><rect x="12" y="46" width="5" height="2" fill="#5a8585"/><rect x="12" y="51" width="5" height="2" fill="#5a8585"/><rect x="16" y="100" width="1" height="4" fill="#303037"/><rect x="150" y="84" width="1" height="2" fill="#303037"/><rect x="78" y="46" width="1" height="4" fill="#303037"/><rect x="124" y="33" width="1" height="4" fill="#303037"/><rect x="87" y="83" width="1" height="3" fill="#303037"/><rect x="148" y="109" width="1" height="2" fill="#303037"/><rect x="121" y="70" width="1" height="4" fill="#303037"/><rect x="83" y="85" width="1" height="4" fill="#303037"/><rect x="118" y="36" width="1" height="4" fill="#303037"/><rect x="89" y="35" width="1" height="4" fill="#303037"/><rect x="104" y="44" width="1" height="3" fill="#303037"/><rect x="115" y="46" width="1" height="4" fill="#303037"/><rect x="132" y="18" width="1" height="3" fill="#303037"/><rect x="50" y="107" width="1" height="4" fill="#303037"/><rect x="122" y="36" width="1" height="2" fill="#303037"/><rect x="106" y="21" width="1" height="5" fill="#303037"/><rect x="77" y="79" width="1" height="4" fill="#303037"/><rect x="7" y="25" width="1" height="3" fill="#303037"/><rect x="150" y="56" width="1" height="3" fill="#303037"/><rect x="56" y="97" width="1" height="3" fill="#303037"/><rect x="10" y="60" width="1" height="3" fill="#303037"/><rect x="42" y="6" width="1" height="3" fill="#303037"/><rect x="28" y="40" width="1" height="3" fill="#303037"/><rect x="123" y="24" width="1" height="2" fill="#303037"/><rect x="106" y="59" width="1" height="4" fill="#303037"/><rect x="97" y="84" width="1" height="2" fill="#303037"/><rect x="151" y="26" width="1" height="3" fill="#303037"/><rect x="95" y="0" width="1" height="4" fill="#303037"/><rect x="103" y="35" width="1" height="5" fill="#303037"/><rect x="29" y="88" width="1" height="4" fill="#303037"/><rect x="9" y="70" width="1" height="4" fill="#303037"/><rect x="24" y="37" width="1" height="4" fill="#303037"/><rect x="148" y="37" width="1" height="4" fill="#303037"/><rect x="33" y="53" width="1" height="5" fill="#303037"/><rect x="144" y="82" width="1" height="4" fill="#303037"/><rect x="119" y="18" width="1" height="3" fill="#303037"/><rect x="152" y="48" width="1" height="5" fill="#303037"/><rect x="50" y="17" width="1" height="2" fill="#303037"/><rect x="89" y="105" width="1" height="2" fill="#303037"/><rect x="97" y="13" width="1" height="4" fill="#303037"/><rect x="144" y="117" width="1" height="3" fill="#303037"/><rect x="83" y="80" width="1" height="5" fill="#303037"/><rect x="109" y="55" width="1" height="3" fill="#303037"/><rect x="126" y="37" width="1" height="5" fill="#303037"/><rect x="97" y="49" width="1" height="3" fill="#303037"/><rect x="152" y="76" width="1" height="4" fill="#303037"/><rect x="77" y="63" width="1" height="4" fill="#303037"/><rect x="106" y="2" width="1" height="4" fill="#303037"/><rect x="78" y="62" width="1" height="4" fill="#303037"/><rect x="36" y="61" width="1" height="2" fill="#303037"/><rect x="31" y="84" width="1" height="5" fill="#303037"/><rect x="62" y="37" width="1" height="2" fill="#303037"/><rect x="34" y="105" width="1" height="5" fill="#303037"/><rect x="3" y="61" width="1" height="4" fill="#303037"/><rect x="62" y="119" width="1" height="5" fill="#303037"/><rect x="9" y="31" width="1" height="5" fill="#303037"/><rect x="68" y="108" width="1" height="3" fill="#303037"/><rect x="73" y="37" width="1" height="5" fill="#303037"/><rect x="155" y="60" width="1" height="2" fill="#303037"/><rect x="4" y="97" width="1" height="3" fill="#303037"/><rect x="76" y="36" width="1" height="4" fill="#303037"/><rect x="157" y="37" width="1" height="2" fill="#303037"/><rect x="118" y="44" width="1" height="4" fill="#303037"/><rect x="151" y="16" width="1" height="2" fill="#303037"/><rect x="0" y="32" width="1" height="5" fill="#303037"/><rect x="27" y="113" width="1" height="3" fill="#303037"/><rect x="3" y="54" width="1" height="5" fill="#303037"/><rect x="152" y="73" width="1" height="5" fill="#303037"/><rect x="98" y="60" width="1" height="5" fill="#303037"/><rect x="50" y="115" width="1" height="4" fill="#303037"/></svg>